<svg width="56" height="56" viewBox="0 0 56 56" fill="none" xmlns="http://www.w3.org/2000/svg">
<rect width="56" height="56" rx="28" fill="white"/>
<path d="M37.3333 26.6665H35.0667C35.0667 27.6532 34.8533 28.5732 34.4933 29.3998L36.1333 31.0398C36.88 29.7332 37.3333 28.2532 37.3333 26.6665ZM31.9733 26.8932C31.9733 26.8132 32 26.7465 32 26.6665V18.6665C32 16.4532 30.2133 14.6665 28 14.6665C25.7867 14.6665 24 16.4532 24 18.6665V18.9065L31.9733 26.8932ZM17.6933 15.9998L16 17.6932L24.0133 25.7065V26.6665C24.0133 28.8798 25.7867 30.6665 28 30.6665C28.2933 30.6665 28.5867 30.6265 28.8667 30.5598L31.08 32.7732C30.1333 33.2132 29.08 33.4665 28 33.4665C24.32 33.4665 20.9333 30.6665 20.9333 26.6665H18.6667C18.6667 31.2132 22.2933 34.9732 26.6667 35.6265V39.9998H29.3333V35.6265C30.5467 35.4532 31.6933 35.0265 32.72 34.4265L38.3067 39.9998L40 38.3065L17.6933 15.9998Z" fill="#ACACAC"/>
</svg>
