<svg width="56" height="56" viewBox="0 0 56 56" fill="none" xmlns="http://www.w3.org/2000/svg">
<rect width="56" height="56" rx="28" fill="black"/>
<path d="M28.0003 30.6665C30.2137 30.6665 31.987 28.8798 31.987 26.6665L32.0003 18.6665C32.0003 16.4532 30.2137 14.6665 28.0003 14.6665C25.787 14.6665 24.0003 16.4532 24.0003 18.6665V26.6665C24.0003 28.8798 25.787 30.6665 28.0003 30.6665ZM35.067 26.6665C35.067 30.6665 31.6803 33.4665 28.0003 33.4665C24.3203 33.4665 20.9337 30.6665 20.9337 26.6665H18.667C18.667 31.2132 22.2937 34.9732 26.667 35.6265V39.9998H29.3337V35.6265C33.707 34.9865 37.3337 31.2265 37.3337 26.6665H35.067Z" fill="white"/>
</svg>
