<svg width="153" height="28" viewBox="0 0 153 28" fill="none" xmlns="http://www.w3.org/2000/svg">
<g clip-path="url(#clip0_1265_1668)">
<path d="M29.1663 11.9527C29.1663 6.00503 23.1475 1.1665 15.7497 1.1665C8.35185 1.1665 2.33301 6.01358 2.33301 11.9527C2.33301 16.1639 5.35373 19.8163 9.74212 21.5926V18.482C6.97571 17.0564 5.15876 14.6556 5.15876 11.9527C5.15876 7.57605 9.90884 4.01772 15.7497 4.01772C21.5905 4.01772 26.3406 7.57605 26.3406 11.9527C26.3406 15.9016 22.4721 19.1834 17.4225 19.7878L16.0096 11.582C15.9943 11.5204 15.959 11.4656 15.9094 11.4265C15.8597 11.3874 15.7985 11.3662 15.7355 11.3662C15.6725 11.3662 15.6114 11.3874 15.5617 11.4265C15.5121 11.4656 15.4768 11.5204 15.4614 11.582L13.0765 25.6129L12.7403 25.6642C11.6992 25.8359 10.6878 26.1566 9.73646 26.6165V26.759L11.2398 26.7961H12.7403L15.744 26.8189L18.7478 26.7961H20.2511L21.7516 26.759V26.6165C20.7992 26.16 19.7881 25.8404 18.7478 25.667L18.4115 25.6157L17.8973 22.5963C24.2806 21.7666 29.1663 17.3101 29.1663 11.9527Z" fill="#231815"/>
</g>
<path fill-rule="evenodd" clip-rule="evenodd" d="M44.7135 14.9485V21.2588H38.5V2.3335H53.3761C59.5432 2.3335 62.6268 4.38501 62.6268 8.48804V8.74391C62.6268 12.8822 59.5432 14.9504 53.3761 14.9485H44.7135ZM44.7135 10.7018H53.2691C55.1888 10.7018 56.1486 10.0408 56.1486 8.71887V8.641C56.1486 7.30422 55.1888 6.63491 53.2691 6.63305H44.7135V10.7018ZM83.5399 17.5878V21.3951H78.9948C77.7702 21.3951 77.0573 20.7517 76.8559 19.465C76.4352 20.0045 75.7222 20.5042 74.7169 20.964C73.7117 21.4238 72.3356 21.6537 70.5889 21.6537H70.2627C68.1238 21.6537 66.5419 21.2199 65.517 20.3522C65.0296 19.9686 64.6355 19.4713 64.3667 18.9003C64.0978 18.3293 63.9616 17.7007 63.969 17.0649V16.8842C63.969 15.5956 64.4092 14.6222 65.2897 13.964C66.1702 13.3058 67.6265 12.8794 69.6584 12.6847L75.8506 12.0868C76.42 12.0173 76.7061 11.7725 76.7061 11.3553C76.7176 11.1556 76.6598 10.9582 76.543 10.7991C76.4334 10.6601 76.1019 10.521 75.5484 10.3959C74.7684 10.2452 73.9754 10.1799 73.1823 10.2012H63.969V6.97514H73.7598C75.0572 6.95536 76.354 7.04838 77.6365 7.25325C78.4845 7.37769 79.3138 7.61414 80.1043 7.95686C80.6289 8.19729 81.0881 8.56895 81.4411 9.03871C81.7143 9.38659 81.9122 9.79163 82.0213 10.2262C82.0937 10.6474 82.1268 11.0749 82.1202 11.5027V16.8758C82.1202 17.343 82.3555 17.5794 82.8261 17.5794L83.5399 17.5878ZM76.6928 14.7205L71.3455 15.5798C70.7953 15.6383 70.2585 15.7925 69.7574 16.0359C69.6134 16.1193 69.4948 16.243 69.4149 16.3929C69.3351 16.5428 69.2972 16.713 69.3055 16.8842V16.9092C69.3107 17.1291 69.366 17.3446 69.4669 17.538C69.5678 17.7314 69.7113 17.8972 69.8857 18.0216C70.2707 18.3368 70.8999 18.4935 71.7733 18.4916C73.217 18.4916 74.3997 18.1523 75.3212 17.4737C76.2427 16.7952 76.7043 16.022 76.7061 15.1543L76.6928 14.7205ZM91.3336 9.21114V7.26438H85.4061V25.6668H91.3229V18.9728C91.7471 19.4289 92.5839 19.9193 93.8334 20.4439C95.0829 20.9686 96.6202 21.231 98.4454 21.231H98.8705C100.272 21.2576 101.668 21.0654 103.015 20.6609C104.039 20.3658 104.982 19.8226 105.766 19.0757C106.396 18.4533 106.894 17.7013 107.228 16.8675C107.545 16.0368 107.703 15.1497 107.694 14.256V13.7749C107.706 12.866 107.553 11.9628 107.242 11.1134C106.925 10.2954 106.439 9.5596 105.819 8.95806C105.054 8.24763 104.138 7.73502 103.146 7.46183C101.817 7.08045 100.443 6.9006 99.0657 6.92787H98.5871C95.5748 6.92972 93.157 7.69081 91.3336 9.21114ZM92.7132 16.5699C91.7934 15.8598 91.3336 15.032 91.3336 14.0864V13.989C91.3318 13.0268 91.7774 12.199 92.6704 11.5055C93.5634 10.8121 94.8788 10.4654 96.6167 10.4654H96.7477C98.5042 10.4654 99.7555 10.7991 100.509 11.4666C100.87 11.77 101.159 12.155 101.354 12.5921C101.55 13.0292 101.647 13.507 101.638 13.989V14.0919C101.639 14.5713 101.537 15.0447 101.339 15.4778C101.142 15.9108 100.854 16.2925 100.496 16.5949C99.7386 17.2883 98.4909 17.6351 96.753 17.6351H96.622C94.9358 17.6351 93.6329 17.28 92.7132 16.5699ZM131.574 17.457C131.396 17.9652 131.115 18.4279 130.751 18.8142C130.28 19.3405 129.722 19.7747 129.104 20.0963C128.196 20.5359 127.234 20.8429 126.246 21.0085C124.834 21.2687 123.402 21.3916 121.968 21.3756H120.439C118.827 21.4047 117.219 21.213 115.656 20.8055C114.308 20.4235 113.263 19.8951 112.519 19.2203C111.828 18.6166 111.271 17.8642 110.886 17.0149C110.534 16.1935 110.357 15.3026 110.367 14.4034V13.8472C110.357 12.9684 110.52 12.0966 110.846 11.2858C111.203 10.4531 111.734 9.71324 112.399 9.11934C113.112 8.44817 114.14 7.92348 115.482 7.54525C117.05 7.13637 118.662 6.94467 120.278 6.97513H121.901C128.526 6.97513 131.84 9.42619 131.842 14.3283V15.2683H116.188C116.574 17.0427 118.257 17.9298 121.235 17.9298H121.262C121.926 17.9368 122.588 17.8856 123.243 17.7769C123.701 17.7087 124.15 17.5855 124.58 17.4098C124.862 17.2889 125.126 17.1269 125.364 16.9286C125.518 16.8036 125.656 16.6588 125.775 16.4976C125.84 16.4023 125.885 16.2945 125.909 16.1805H131.756V16.2056C131.758 16.6299 131.696 17.052 131.574 17.457ZM121.051 10.1428C118.356 10.1428 116.77 10.9122 116.292 12.4511H125.861C125.437 10.9104 123.842 10.1409 121.078 10.1428H121.051ZM151.667 10.0733V6.83606L145.504 6.83884C144.545 6.82721 143.593 7.02227 142.71 7.41175C142.054 7.66948 141.448 8.04612 140.919 8.52418C140.592 8.85592 140.298 9.22116 140.042 9.61436V7.14754H134.502V21.1142H140.084V13.8972C140.058 13.0255 140.333 12.1727 140.86 11.4944C141.379 10.8464 142.403 10.2179 143.082 10.1456C143.761 10.0732 151.667 10.0733 151.667 10.0733Z" fill="#231815"/>
<defs>
<clipPath id="clip0_1265_1668">
<rect width="26.8333" height="25.6667" fill="white" transform="translate(2.33301 1.1665)"/>
</clipPath>
</defs>
</svg>
