<svg width="56" height="56" viewBox="0 0 56 56" fill="none" xmlns="http://www.w3.org/2000/svg">
<rect width="56" height="56" rx="28" fill="black"/>
<path d="M36 33.4398C34.9867 33.4398 34.08 33.8398 33.3867 34.4665L23.88 28.9332C23.9467 28.6265 24 28.3198 24 27.9998C24 27.6798 23.9467 27.3732 23.88 27.0665L33.28 21.5865C34 22.2532 34.9467 22.6665 36 22.6665C38.2133 22.6665 40 20.8798 40 18.6665C40 16.4532 38.2133 14.6665 36 14.6665C33.7867 14.6665 32 16.4532 32 18.6665C32 18.9865 32.0533 19.2932 32.12 19.5998L22.72 25.0798C22 24.4132 21.0533 23.9998 20 23.9998C17.7867 23.9998 16 25.7865 16 27.9998C16 30.2132 17.7867 31.9998 20 31.9998C21.0533 31.9998 22 31.5865 22.72 30.9198L32.2133 36.4665C32.1467 36.7465 32.1067 37.0398 32.1067 37.3332C32.1067 39.4798 33.8533 41.2265 36 41.2265C38.1467 41.2265 39.8933 39.4798 39.8933 37.3332C39.8933 35.1865 38.1467 33.4398 36 33.4398Z" fill="white"/>
</svg>
